<mxfile host="Electron" modified="2023-11-15T22:15:46.071Z" agent="Mozilla/5.0 (Windows NT 10.0; Win64; x64) AppleWebKit/537.36 (KHTML, like Gecko) draw.io/22.0.3 Chrome/114.0.5735.289 Electron/25.8.4 Safari/537.36" etag="RhaSrRIj1dRdeyYhcuC8" version="22.0.3" type="device">
  <diagram name="Страница — 1" id="ClUUz-PhFVc8LEqoqP6E">
    <mxGraphModel dx="567" dy="-69" grid="0" gridSize="10" guides="1" tooltips="1" connect="1" arrows="1" fold="1" page="0" pageScale="1" pageWidth="827" pageHeight="1169" math="0" shadow="0">
      <root>
        <mxCell id="0" />
        <mxCell id="1" parent="0" />
        <mxCell id="MLpdRskqEerYFSkRcBAE-7" value="&lt;div style=&quot;line-height: 70%;&quot;&gt;&lt;span style=&quot;background-color: initial;&quot;&gt;&lt;font style=&quot;font-size: 7px;&quot;&gt;&lt;b&gt;&lt;i&gt;Регистрация на платформе&lt;/i&gt;&lt;/b&gt;&lt;/font&gt;&lt;/span&gt;&lt;/div&gt;" style="html=1;rounded=1;absoluteArcSize=1;arcSize=10;whiteSpace=wrap;align=center;fillColor=#ffe6cc;strokeColor=#d79b00;" parent="1" vertex="1">
          <mxGeometry x="370" y="490" width="70" height="35" as="geometry" />
        </mxCell>
        <mxCell id="MLpdRskqEerYFSkRcBAE-10" value="&lt;div style=&quot;line-height: 70%;&quot;&gt;&lt;span style=&quot;background-color: initial;&quot;&gt;&lt;font style=&quot;font-size: 7px;&quot;&gt;&lt;b&gt;&lt;i&gt;Составление вакансии&lt;/i&gt;&lt;/b&gt;&lt;/font&gt;&lt;/span&gt;&lt;/div&gt;" style="html=1;rounded=1;absoluteArcSize=1;arcSize=10;whiteSpace=wrap;align=center;fillColor=#d0cee2;strokeColor=#56517e;" parent="1" vertex="1">
          <mxGeometry x="500" y="490" width="70" height="35" as="geometry" />
        </mxCell>
        <mxCell id="MLpdRskqEerYFSkRcBAE-12" value="" style="endArrow=open;endFill=1;endSize=12;html=1;rounded=0;exitX=1;exitY=0.5;exitDx=0;exitDy=0;" parent="1" source="MLpdRskqEerYFSkRcBAE-7" edge="1">
          <mxGeometry width="160" relative="1" as="geometry">
            <mxPoint x="390" y="507.34" as="sourcePoint" />
            <mxPoint x="500" y="507" as="targetPoint" />
          </mxGeometry>
        </mxCell>
        <mxCell id="MLpdRskqEerYFSkRcBAE-13" value="&lt;div style=&quot;line-height: 70%;&quot;&gt;&lt;span style=&quot;font-size: 7px;&quot;&gt;&lt;b&gt;&lt;i&gt;Оплата услуг по размещению вакансии&lt;/i&gt;&lt;/b&gt;&lt;/span&gt;&lt;/div&gt;" style="html=1;rounded=1;absoluteArcSize=1;arcSize=10;whiteSpace=wrap;align=center;fillColor=#b0e3e6;strokeColor=#0e8088;" parent="1" vertex="1">
          <mxGeometry x="630" y="490" width="70" height="35" as="geometry" />
        </mxCell>
        <mxCell id="MLpdRskqEerYFSkRcBAE-14" value="" style="endArrow=open;endFill=1;endSize=12;html=1;rounded=0;exitX=1;exitY=0.5;exitDx=0;exitDy=0;" parent="1" edge="1">
          <mxGeometry width="160" relative="1" as="geometry">
            <mxPoint x="570" y="508" as="sourcePoint" />
            <mxPoint x="630" y="507" as="targetPoint" />
          </mxGeometry>
        </mxCell>
        <mxCell id="MLpdRskqEerYFSkRcBAE-16" value="&lt;div style=&quot;line-height: 70%;&quot;&gt;&lt;span style=&quot;font-size: 7px;&quot;&gt;&lt;b&gt;&lt;i&gt;Мониторинг отклика&lt;/i&gt;&lt;/b&gt;&lt;/span&gt;&lt;/div&gt;" style="html=1;rounded=1;absoluteArcSize=1;arcSize=10;whiteSpace=wrap;align=center;fillColor=#bac8d3;strokeColor=#23445d;" parent="1" vertex="1">
          <mxGeometry x="757" y="490" width="70" height="35" as="geometry" />
        </mxCell>
        <mxCell id="MLpdRskqEerYFSkRcBAE-17" value="" style="endArrow=open;endFill=1;endSize=12;html=1;rounded=0;exitX=1;exitY=0.5;exitDx=0;exitDy=0;entryX=0;entryY=0.5;entryDx=0;entryDy=0;" parent="1" target="MLpdRskqEerYFSkRcBAE-16" edge="1">
          <mxGeometry width="160" relative="1" as="geometry">
            <mxPoint x="700" y="508" as="sourcePoint" />
            <mxPoint x="740" y="508" as="targetPoint" />
          </mxGeometry>
        </mxCell>
        <mxCell id="MLpdRskqEerYFSkRcBAE-18" value="&lt;div style=&quot;line-height: 70%;&quot;&gt;&lt;span style=&quot;font-size: 7px;&quot;&gt;&lt;i&gt;&lt;b&gt;Понравилось резюме соискателя&lt;/b&gt;&lt;/i&gt;&lt;/span&gt;&lt;/div&gt;" style="html=1;rounded=1;absoluteArcSize=1;arcSize=10;whiteSpace=wrap;align=center;fillColor=#d5e8d4;strokeColor=#82b366;" parent="1" vertex="1">
          <mxGeometry x="690" y="580" width="70" height="35" as="geometry" />
        </mxCell>
        <mxCell id="MLpdRskqEerYFSkRcBAE-19" value="" style="endArrow=open;endFill=1;endSize=12;html=1;rounded=0;exitX=1;exitY=0.5;exitDx=0;exitDy=0;entryX=1;entryY=0.5;entryDx=0;entryDy=0;edgeStyle=orthogonalEdgeStyle;curved=1;" parent="1" source="MLpdRskqEerYFSkRcBAE-20" target="MLpdRskqEerYFSkRcBAE-16" edge="1">
          <mxGeometry width="160" relative="1" as="geometry">
            <mxPoint x="910" y="598" as="sourcePoint" />
            <mxPoint x="970" y="597" as="targetPoint" />
          </mxGeometry>
        </mxCell>
        <mxCell id="MLpdRskqEerYFSkRcBAE-20" value="&lt;div style=&quot;line-height: 70%;&quot;&gt;&lt;span style=&quot;font-size: 7px;&quot;&gt;&lt;b&gt;Не понравилось резюме соискателя&lt;/b&gt;&lt;/span&gt;&lt;/div&gt;" style="html=1;rounded=1;absoluteArcSize=1;arcSize=10;whiteSpace=wrap;align=center;fillColor=#f8cecc;strokeColor=#b85450;" parent="1" vertex="1">
          <mxGeometry x="830" y="580" width="70" height="35" as="geometry" />
        </mxCell>
        <mxCell id="MLpdRskqEerYFSkRcBAE-22" value="" style="endArrow=open;endFill=1;endSize=12;html=1;rounded=0;exitX=0.5;exitY=1;exitDx=0;exitDy=0;entryX=0.5;entryY=0;entryDx=0;entryDy=0;edgeStyle=orthogonalEdgeStyle;" parent="1" source="MLpdRskqEerYFSkRcBAE-16" target="MLpdRskqEerYFSkRcBAE-18" edge="1">
          <mxGeometry width="160" relative="1" as="geometry">
            <mxPoint x="770" y="561" as="sourcePoint" />
            <mxPoint x="830" y="560" as="targetPoint" />
          </mxGeometry>
        </mxCell>
        <mxCell id="MLpdRskqEerYFSkRcBAE-24" value="" style="endArrow=open;endFill=1;endSize=12;html=1;rounded=0;entryX=0.5;entryY=0;entryDx=0;entryDy=0;exitX=0.5;exitY=1;exitDx=0;exitDy=0;edgeStyle=orthogonalEdgeStyle;" parent="1" source="MLpdRskqEerYFSkRcBAE-16" target="MLpdRskqEerYFSkRcBAE-20" edge="1">
          <mxGeometry width="160" relative="1" as="geometry">
            <mxPoint x="800" y="550" as="sourcePoint" />
            <mxPoint x="880" y="560" as="targetPoint" />
          </mxGeometry>
        </mxCell>
        <mxCell id="MLpdRskqEerYFSkRcBAE-25" value="" style="endArrow=open;endFill=1;endSize=12;html=1;rounded=0;exitX=0.5;exitY=1;exitDx=0;exitDy=0;entryX=0.5;entryY=0;entryDx=0;entryDy=0;" parent="1" source="MLpdRskqEerYFSkRcBAE-18" target="MLpdRskqEerYFSkRcBAE-26" edge="1">
          <mxGeometry width="160" relative="1" as="geometry">
            <mxPoint x="710" y="630" as="sourcePoint" />
            <mxPoint x="725" y="650" as="targetPoint" />
          </mxGeometry>
        </mxCell>
        <mxCell id="MLpdRskqEerYFSkRcBAE-26" value="&lt;div style=&quot;line-height: 70%;&quot;&gt;&lt;span style=&quot;font-size: 7px;&quot;&gt;&lt;i&gt;&lt;b&gt;Переписка с соискателем&lt;/b&gt;&lt;/i&gt;&lt;/span&gt;&lt;/div&gt;" style="html=1;rounded=1;absoluteArcSize=1;arcSize=10;whiteSpace=wrap;align=center;fillColor=#dae8fc;strokeColor=#6c8ebf;" parent="1" vertex="1">
          <mxGeometry x="690" y="660" width="70" height="35" as="geometry" />
        </mxCell>
      </root>
    </mxGraphModel>
  </diagram>
</mxfile>
